<mxfile host="app.diagrams.net" agent="Mozilla/5.0 (Windows NT 10.0; Win64; x64) AppleWebKit/537.36 (KHTML, like Gecko) Chrome/131.0.0.0 Safari/537.36" version="25.0.3">
  <diagram name="Page-1" id="b5b7bab2-c9e2-2cf4-8b2a-24fd1a2a6d21">
    <mxGraphModel dx="1909" dy="969" grid="1" gridSize="10" guides="1" tooltips="1" connect="1" arrows="1" fold="1" page="0" pageScale="1" pageWidth="827" pageHeight="1169" background="none" math="0" shadow="0">
      <root>
        <mxCell id="0" />
        <mxCell id="1" parent="0" />
        <mxCell id="atYYvaAc2izqLr-3BEkU-10" value="«The whole SPA»&lt;br&gt;&lt;b&gt;Website&lt;/b&gt;" style="html=1;dropTarget=0;whiteSpace=wrap;" parent="1" vertex="1">
          <mxGeometry x="560" y="200" width="180" height="90" as="geometry" />
        </mxCell>
        <mxCell id="atYYvaAc2izqLr-3BEkU-11" value="" style="shape=module;jettyWidth=8;jettyHeight=4;" parent="atYYvaAc2izqLr-3BEkU-10" vertex="1">
          <mxGeometry x="1" width="20" height="20" relative="1" as="geometry">
            <mxPoint x="-27" y="7" as="offset" />
          </mxGeometry>
        </mxCell>
        <mxCell id="atYYvaAc2izqLr-3BEkU-22" style="edgeStyle=orthogonalEdgeStyle;rounded=0;orthogonalLoop=1;jettySize=auto;html=1;exitX=0.5;exitY=0;exitDx=0;exitDy=0;entryX=0.25;entryY=1;entryDx=0;entryDy=0;" parent="1" source="atYYvaAc2izqLr-3BEkU-15" target="atYYvaAc2izqLr-3BEkU-10" edge="1">
          <mxGeometry relative="1" as="geometry" />
        </mxCell>
        <mxCell id="atYYvaAc2izqLr-3BEkU-15" value="«Top Section»&lt;br&gt;&lt;b&gt;Header&lt;/b&gt;" style="html=1;dropTarget=0;whiteSpace=wrap;" parent="1" vertex="1">
          <mxGeometry x="340" y="360" width="180" height="90" as="geometry" />
        </mxCell>
        <mxCell id="atYYvaAc2izqLr-3BEkU-16" value="" style="shape=module;jettyWidth=8;jettyHeight=4;" parent="atYYvaAc2izqLr-3BEkU-15" vertex="1">
          <mxGeometry x="1" width="20" height="20" relative="1" as="geometry">
            <mxPoint x="-27" y="7" as="offset" />
          </mxGeometry>
        </mxCell>
        <mxCell id="atYYvaAc2izqLr-3BEkU-21" style="edgeStyle=orthogonalEdgeStyle;rounded=0;orthogonalLoop=1;jettySize=auto;html=1;exitX=0.5;exitY=0;exitDx=0;exitDy=0;entryX=0.5;entryY=1;entryDx=0;entryDy=0;" parent="1" source="atYYvaAc2izqLr-3BEkU-17" target="atYYvaAc2izqLr-3BEkU-10" edge="1">
          <mxGeometry relative="1" as="geometry" />
        </mxCell>
        <mxCell id="atYYvaAc2izqLr-3BEkU-17" value="«Middle section»&lt;br&gt;&lt;b&gt;Games Section&lt;/b&gt;" style="html=1;dropTarget=0;whiteSpace=wrap;" parent="1" vertex="1">
          <mxGeometry x="560" y="360" width="180" height="90" as="geometry" />
        </mxCell>
        <mxCell id="atYYvaAc2izqLr-3BEkU-18" value="" style="shape=module;jettyWidth=8;jettyHeight=4;" parent="atYYvaAc2izqLr-3BEkU-17" vertex="1">
          <mxGeometry x="1" width="20" height="20" relative="1" as="geometry">
            <mxPoint x="-27" y="7" as="offset" />
          </mxGeometry>
        </mxCell>
        <mxCell id="atYYvaAc2izqLr-3BEkU-23" style="edgeStyle=orthogonalEdgeStyle;rounded=0;orthogonalLoop=1;jettySize=auto;html=1;exitX=0.5;exitY=0;exitDx=0;exitDy=0;entryX=0.75;entryY=1;entryDx=0;entryDy=0;" parent="1" source="atYYvaAc2izqLr-3BEkU-19" target="atYYvaAc2izqLr-3BEkU-10" edge="1">
          <mxGeometry relative="1" as="geometry" />
        </mxCell>
        <mxCell id="atYYvaAc2izqLr-3BEkU-19" value="«Bottom Section»&lt;br&gt;&lt;b&gt;Footer&lt;/b&gt;" style="html=1;dropTarget=0;whiteSpace=wrap;" parent="1" vertex="1">
          <mxGeometry x="780" y="360" width="180" height="90" as="geometry" />
        </mxCell>
        <mxCell id="atYYvaAc2izqLr-3BEkU-20" value="" style="shape=module;jettyWidth=8;jettyHeight=4;" parent="atYYvaAc2izqLr-3BEkU-19" vertex="1">
          <mxGeometry x="1" width="20" height="20" relative="1" as="geometry">
            <mxPoint x="-27" y="7" as="offset" />
          </mxGeometry>
        </mxCell>
        <mxCell id="atYYvaAc2izqLr-3BEkU-28" style="edgeStyle=orthogonalEdgeStyle;rounded=0;orthogonalLoop=1;jettySize=auto;html=1;exitX=0.75;exitY=0;exitDx=0;exitDy=0;entryX=0.25;entryY=1;entryDx=0;entryDy=0;" parent="1" source="atYYvaAc2izqLr-3BEkU-24" target="atYYvaAc2izqLr-3BEkU-15" edge="1">
          <mxGeometry relative="1" as="geometry" />
        </mxCell>
        <mxCell id="atYYvaAc2izqLr-3BEkU-24" value="«Text»&lt;br&gt;&lt;b&gt;Title&lt;/b&gt;" style="html=1;dropTarget=0;whiteSpace=wrap;" parent="1" vertex="1">
          <mxGeometry x="140" y="520" width="180" height="90" as="geometry" />
        </mxCell>
        <mxCell id="atYYvaAc2izqLr-3BEkU-25" value="" style="shape=module;jettyWidth=8;jettyHeight=4;" parent="atYYvaAc2izqLr-3BEkU-24" vertex="1">
          <mxGeometry x="1" width="20" height="20" relative="1" as="geometry">
            <mxPoint x="-27" y="7" as="offset" />
          </mxGeometry>
        </mxCell>
        <mxCell id="atYYvaAc2izqLr-3BEkU-29" style="edgeStyle=orthogonalEdgeStyle;rounded=0;orthogonalLoop=1;jettySize=auto;html=1;exitX=0.5;exitY=0;exitDx=0;exitDy=0;entryX=0.5;entryY=1;entryDx=0;entryDy=0;" parent="1" source="atYYvaAc2izqLr-3BEkU-26" target="atYYvaAc2izqLr-3BEkU-15" edge="1">
          <mxGeometry relative="1" as="geometry" />
        </mxCell>
        <mxCell id="atYYvaAc2izqLr-3BEkU-26" value="«Link»&lt;br&gt;&lt;b&gt;Social media Links&lt;/b&gt;" style="html=1;dropTarget=0;whiteSpace=wrap;" parent="1" vertex="1">
          <mxGeometry x="340" y="520" width="180" height="90" as="geometry" />
        </mxCell>
        <mxCell id="atYYvaAc2izqLr-3BEkU-27" value="" style="shape=module;jettyWidth=8;jettyHeight=4;" parent="atYYvaAc2izqLr-3BEkU-26" vertex="1">
          <mxGeometry x="1" width="20" height="20" relative="1" as="geometry">
            <mxPoint x="-27" y="7" as="offset" />
          </mxGeometry>
        </mxCell>
        <mxCell id="atYYvaAc2izqLr-3BEkU-35" style="edgeStyle=orthogonalEdgeStyle;rounded=0;orthogonalLoop=1;jettySize=auto;html=1;exitX=0.5;exitY=0;exitDx=0;exitDy=0;entryX=0.5;entryY=1;entryDx=0;entryDy=0;" parent="1" source="atYYvaAc2izqLr-3BEkU-33" target="atYYvaAc2izqLr-3BEkU-17" edge="1">
          <mxGeometry relative="1" as="geometry" />
        </mxCell>
        <mxCell id="atYYvaAc2izqLr-3BEkU-33" value="«Shows when Game clicked»&lt;br&gt;&lt;b&gt;Game Details&lt;/b&gt;" style="html=1;dropTarget=0;whiteSpace=wrap;" parent="1" vertex="1">
          <mxGeometry x="560" y="520" width="180" height="90" as="geometry" />
        </mxCell>
        <mxCell id="atYYvaAc2izqLr-3BEkU-34" value="" style="shape=module;jettyWidth=8;jettyHeight=4;" parent="atYYvaAc2izqLr-3BEkU-33" vertex="1">
          <mxGeometry x="1" width="20" height="20" relative="1" as="geometry">
            <mxPoint x="-27" y="7" as="offset" />
          </mxGeometry>
        </mxCell>
        <mxCell id="atYYvaAc2izqLr-3BEkU-42" style="edgeStyle=orthogonalEdgeStyle;rounded=0;orthogonalLoop=1;jettySize=auto;html=1;exitX=0.5;exitY=0;exitDx=0;exitDy=0;entryX=0.25;entryY=1;entryDx=0;entryDy=0;" parent="1" source="atYYvaAc2izqLr-3BEkU-36" target="atYYvaAc2izqLr-3BEkU-33" edge="1">
          <mxGeometry relative="1" as="geometry" />
        </mxCell>
        <mxCell id="atYYvaAc2izqLr-3BEkU-36" value="«Text»&lt;br&gt;&lt;b&gt;Description&lt;/b&gt;" style="html=1;dropTarget=0;whiteSpace=wrap;" parent="1" vertex="1">
          <mxGeometry x="360" y="700" width="180" height="90" as="geometry" />
        </mxCell>
        <mxCell id="atYYvaAc2izqLr-3BEkU-37" value="" style="shape=module;jettyWidth=8;jettyHeight=4;" parent="atYYvaAc2izqLr-3BEkU-36" vertex="1">
          <mxGeometry x="1" width="20" height="20" relative="1" as="geometry">
            <mxPoint x="-27" y="7" as="offset" />
          </mxGeometry>
        </mxCell>
        <mxCell id="atYYvaAc2izqLr-3BEkU-43" style="edgeStyle=orthogonalEdgeStyle;rounded=0;orthogonalLoop=1;jettySize=auto;html=1;exitX=0.5;exitY=0;exitDx=0;exitDy=0;entryX=0.5;entryY=1;entryDx=0;entryDy=0;" parent="1" source="atYYvaAc2izqLr-3BEkU-38" target="atYYvaAc2izqLr-3BEkU-33" edge="1">
          <mxGeometry relative="1" as="geometry" />
        </mxCell>
        <mxCell id="atYYvaAc2izqLr-3BEkU-38" value="«Video»&lt;br&gt;&lt;b&gt;Game Trailer&lt;/b&gt;" style="html=1;dropTarget=0;whiteSpace=wrap;" parent="1" vertex="1">
          <mxGeometry x="560" y="700" width="180" height="90" as="geometry" />
        </mxCell>
        <mxCell id="atYYvaAc2izqLr-3BEkU-39" value="" style="shape=module;jettyWidth=8;jettyHeight=4;" parent="atYYvaAc2izqLr-3BEkU-38" vertex="1">
          <mxGeometry x="1" width="20" height="20" relative="1" as="geometry">
            <mxPoint x="-27" y="7" as="offset" />
          </mxGeometry>
        </mxCell>
        <mxCell id="atYYvaAc2izqLr-3BEkU-44" style="edgeStyle=orthogonalEdgeStyle;rounded=0;orthogonalLoop=1;jettySize=auto;html=1;exitX=0.5;exitY=0;exitDx=0;exitDy=0;entryX=0.75;entryY=1;entryDx=0;entryDy=0;" parent="1" source="atYYvaAc2izqLr-3BEkU-40" target="atYYvaAc2izqLr-3BEkU-33" edge="1">
          <mxGeometry relative="1" as="geometry" />
        </mxCell>
        <mxCell id="atYYvaAc2izqLr-3BEkU-40" value="«Link»&lt;br&gt;&lt;b&gt;Purchase link&lt;/b&gt;" style="html=1;dropTarget=0;whiteSpace=wrap;" parent="1" vertex="1">
          <mxGeometry x="760" y="700" width="180" height="90" as="geometry" />
        </mxCell>
        <mxCell id="atYYvaAc2izqLr-3BEkU-41" value="" style="shape=module;jettyWidth=8;jettyHeight=4;" parent="atYYvaAc2izqLr-3BEkU-40" vertex="1">
          <mxGeometry x="1" width="20" height="20" relative="1" as="geometry">
            <mxPoint x="-27" y="7" as="offset" />
          </mxGeometry>
        </mxCell>
        <mxCell id="atYYvaAc2izqLr-3BEkU-48" style="edgeStyle=orthogonalEdgeStyle;rounded=0;orthogonalLoop=1;jettySize=auto;html=1;exitX=0.5;exitY=0;exitDx=0;exitDy=0;entryX=0.5;entryY=1;entryDx=0;entryDy=0;" parent="1" source="atYYvaAc2izqLr-3BEkU-45" target="atYYvaAc2izqLr-3BEkU-19" edge="1">
          <mxGeometry relative="1" as="geometry" />
        </mxCell>
        <mxCell id="atYYvaAc2izqLr-3BEkU-45" value="«Third-party»&lt;br&gt;&lt;b&gt;Mailing List&amp;nbsp;&lt;/b&gt;" style="html=1;dropTarget=0;whiteSpace=wrap;" parent="1" vertex="1">
          <mxGeometry x="780" y="520" width="180" height="90" as="geometry" />
        </mxCell>
        <mxCell id="atYYvaAc2izqLr-3BEkU-46" value="" style="shape=module;jettyWidth=8;jettyHeight=4;" parent="atYYvaAc2izqLr-3BEkU-45" vertex="1">
          <mxGeometry x="1" width="20" height="20" relative="1" as="geometry">
            <mxPoint x="-27" y="7" as="offset" />
          </mxGeometry>
        </mxCell>
        <mxCell id="tdd0iAyNJfCtOBEaiw2B-1" value="&lt;font style=&quot;font-size: 50px;&quot; data-font-src=&quot;https://fonts.googleapis.com/css?family=Poppins&quot; face=&quot;Poppins&quot;&gt;&lt;u style=&quot;&quot;&gt;&lt;b style=&quot;&quot;&gt;Component Diagram&lt;/b&gt;&lt;/u&gt;&lt;/font&gt;" style="text;html=1;align=center;verticalAlign=middle;resizable=0;points=[];autosize=1;strokeColor=none;fillColor=none;horizontal=1;labelPosition=center;verticalLabelPosition=middle;labelBackgroundColor=none;labelBorderColor=none;textShadow=0;" vertex="1" parent="1">
          <mxGeometry x="395" y="80" width="560" height="70" as="geometry" />
        </mxCell>
        <mxCell id="tdd0iAyNJfCtOBEaiw2B-4" style="edgeStyle=orthogonalEdgeStyle;rounded=0;orthogonalLoop=1;jettySize=auto;html=1;exitX=0.5;exitY=0;exitDx=0;exitDy=0;entryX=0.75;entryY=1;entryDx=0;entryDy=0;" edge="1" parent="1" source="tdd0iAyNJfCtOBEaiw2B-2" target="atYYvaAc2izqLr-3BEkU-19">
          <mxGeometry relative="1" as="geometry" />
        </mxCell>
        <mxCell id="tdd0iAyNJfCtOBEaiw2B-2" value="«Link»&lt;br&gt;&lt;b&gt;Social Media Links (again)&lt;/b&gt;" style="html=1;dropTarget=0;whiteSpace=wrap;" vertex="1" parent="1">
          <mxGeometry x="980" y="520" width="180" height="90" as="geometry" />
        </mxCell>
        <mxCell id="tdd0iAyNJfCtOBEaiw2B-3" value="" style="shape=module;jettyWidth=8;jettyHeight=4;" vertex="1" parent="tdd0iAyNJfCtOBEaiw2B-2">
          <mxGeometry x="1" width="20" height="20" relative="1" as="geometry">
            <mxPoint x="-27" y="7" as="offset" />
          </mxGeometry>
        </mxCell>
      </root>
    </mxGraphModel>
  </diagram>
</mxfile>
